PathFileType	4	(X/Y/Z)	C:\Users\WrightLab\Desktop\Jo\P2_Trial23.trc
DataRate	CameraRate	NumFrames	NumMarkers	Units	OrigDataRate	OrigDataStartFrame	OrigNumFrames
100.00	100.00	      13	19	mm	100.00	1065	      1217
Frame#	Time	Headset_Front			Headset_Back			Headset_Left			Headset_Right			Left_Shoulder			Right_Shoulder			Sternum			C7			Left Elbow			Right Elbow			Left Wrist			Right Wrist			Left ASIS			Right ASIS			S2			Left Knee			Right Knee			Left Ankle			Right Ankle			
		X1	Y1	Z1	X2	Y2	Z2	X3	Y3	Z3	X4	Y4	Z4	X5	Y5	Z5	X6	Y6	Z6	X7	Y7	Z7	X8	Y8	Z8	X9	Y9	Z9	X10	Y10	Z10	X11	Y11	Z11	X12	Y12	Z12	X13	Y13	Z13	X14	Y14	Z14	X15	Y15	Z15	X16	Y16	Z16	X17	Y17	Z17	X18	Y18	Z18	X19	Y19	Z19	

1065	10.640	-765.70465	1405.29932	-527.60144	-769.17694	1670.64795	-369.10980	-880.24677	1552.22546	-428.78870	-661.00159	1495.86328	-469.47983	-920.55286	1438.62061	-258.58237	-602.18481	1428.75208	-337.49997	-776.71289	1313.88660	-357.77225	-719.98511	1430.38708	-193.39183	-1045.73608	1100.87927	-179.12193	-492.28513	1104.55884	-310.28598	-1068.32202	861.36670	-145.29559	-456.68945	860.61481	-371.21069	-833.32928	1022.09186	-363.16336	-702.85040	997.06976	-388.56219	-740.36029	944.83014	-107.49490	-1026.22083	476.37277	-360.14050	-597.50800	525.54688	-301.31360				-711.11157	109.28519	-252.24503	
1066	10.650	-763.59619	1406.92554	-535.48224	-768.77350	1670.96777	-374.92526	-879.22870	1553.09082	-436.62033	-659.54797	1497.05957	-474.81210	-921.75610	1438.65759	-267.36188	-602.78265	1428.73901	-343.07367	-776.62634	1314.22754	-364.73822	-721.31140	1429.75085	-199.21654	-1047.09717	1100.73022	-189.01199	-493.35300	1103.95923	-316.40582	-1070.24829	861.26392	-153.62436	-459.10944	860.75598	-381.36914	-833.78986	1021.71881	-372.22339	-703.09033	996.96851	-394.91998	-745.23199	946.17920	-114.21399	-1025.73743	481.74338	-383.01538	-595.68134	523.51428	-297.57693				-709.23297	105.25576	-254.21899	
1067	10.660	-761.69275	1408.32764	-543.74200	-768.28491	1671.49146	-380.87646	-878.37170	1553.91711	-444.68076	-658.15497	1497.69385	-480.73245	-922.84247	1439.08398	-277.40759	-602.42474	1428.68750	-349.49185	-776.50958	1313.45837	-372.49081	-723.59570	1429.15625	-206.04089	-1048.69763	1100.81042	-198.95999	-493.76093	1103.60474	-323.77573	-1073.28198	861.80902	-163.17317	-461.36295	861.62317	-390.40829	-834.03992	1021.56525	-381.24609	-703.21558	996.20428	-401.41821	-751.73492	944.50049	-130.51967	-1024.62756	486.53976	-404.90948	-593.29254	521.13843	-293.67340				-705.01654	101.85808	-254.78673	
1068	10.670	-759.69690	1409.86548	-551.57355	-767.94403	1671.59143	-387.19955	-877.15686	1554.60901	-453.37259	-656.92926	1498.65356	-487.10352	-923.71588	1438.57776	-286.62622	-603.10437	1427.87231	-354.38318	-776.41248	1313.88660	-379.84509	-725.45404	1429.61267	-213.42422	-1049.63354	1100.82263	-210.24547	-494.99536	1102.79834	-329.63214	-1075.16577	861.14221	-172.23976	-462.87787	862.39478	-402.26819	-834.33704	1021.11719	-389.74377	-703.64276	995.73297	-409.15588	-756.49036	943.99457	-138.50417	-1022.95709	491.26349	-425.94989	-591.46893	519.28455	-288.60794				-701.16840	98.90723	-255.43552	
1069	10.680	-757.77283	1410.90845	-559.62061	-767.54126	1671.48938	-393.55853	-876.55579	1555.26147	-461.54575	-655.35461	1499.45520	-493.37003	-925.10236	1438.68958	-296.24976	-602.80426	1427.72742	-360.92142	-776.36224	1313.03845	-387.95764	-726.75446	1428.53394	-219.93015	-1050.64136	1100.13562	-220.72412	-495.39764	1101.98071	-336.38614	-1078.09851	861.81696	-183.62552	-464.83490	861.98389	-411.65799	-834.39301	1021.14630	-398.45474	-703.25397	994.24762	-415.50754	-760.87109	943.74097	-145.63351	-1021.11603	495.27710	-445.77628	-590.18622	518.10870	-285.05566				-701.03809	91.07002	-266.22940	
1070	10.690				-767.04407	1671.40698	-400.55231	-875.16760	1555.57312	-469.75757	-654.33649	1499.78662	-500.33743	-926.05157	1438.28589	-305.96204	-603.36426	1426.96912	-366.50665	-775.93878	1312.84949	-395.95743	-729.18378	1428.69995	-227.26505	-1051.99927	1099.93188	-231.47194	-495.24734	1101.50293	-343.92838	-1080.23376	861.29364	-192.60707	-467.17896	862.66241	-421.80795	-834.35980	1021.14410	-407.46136	-703.22009	993.36365	-422.45581	-764.46161	943.38306	-151.21449	-1018.52789	498.94171	-464.29294	-589.77856	516.65448	-279.08109				-697.99872	87.73235	-266.26065	
1071	10.700	-754.15265	1411.83838	-575.79694	-766.55438	1671.20569	-407.52914	-873.86188	1555.78503	-478.30765	-652.81714	1499.84839	-506.82272	-926.64783	1437.91650	-316.07001	-604.12372	1426.18652	-372.24524	-776.30066	1312.30750	-404.94540	-730.89990	1427.26514	-234.55505	-1053.96191	1098.49414	-242.95602	-496.20084	1100.66638	-351.02969	-1082.13867	860.22943	-201.65353	-469.14450	862.62866	-432.24033	-834.36798	1020.64532	-415.48734	-703.36426	992.85950	-429.74512	-768.74292	943.18701	-159.06850	-1015.28717	502.33780	-481.85135	-589.76434	515.61322	-274.82660				-693.82587	84.43207	-266.51282	
1072	10.710	-752.34644	1412.06824	-583.96875	-766.19391	1670.52881	-414.44922	-873.27020	1555.74426	-487.48126	-651.97772	1499.76624	-514.27557	-927.66290	1437.13477	-325.68399	-603.63879	1425.35669	-378.42917	-775.84149	1311.36694	-412.42682	-732.25336	1426.27979	-241.54411	-1054.46106	1098.35913	-253.75426	-496.57458	1099.40552	-357.50620	-1084.57434	860.20630	-213.26175	-470.36060	862.10883	-442.36676	-834.19794	1020.55859	-424.70953	-703.29401	992.01154	-435.92010	-772.71082	942.16101	-166.13220	-1012.38007	504.60217	-497.91083	-589.75208	514.89899	-269.44345				-690.19781	82.61698	-266.64487	
1073	10.720				-765.66418	1670.24231	-422.33853	-871.91486	1555.57446	-496.25430	-650.31055	1498.24353	-520.15796	-928.51367	1436.41248	-335.77798	-603.64258	1424.27246	-385.35114	-775.60663	1310.65247	-420.92157	-734.50311	1426.95007	-250.30951	-1055.81152	1097.46094	-264.96793	-496.03918	1099.15869	-366.09067	-1086.55847	858.74585	-223.78426	-471.46014	863.46301	-452.99319	-834.04547	1020.33008	-433.62854	-702.98505	991.21307	-443.86539	-776.45154	941.25775	-174.91849	-1007.79816	505.64316	-512.72845	-590.21472	515.12012	-264.52356				-688.25836	81.72295	-264.50482	
1074	10.730	-748.88574	1411.55420	-599.80420	-765.28308	1669.52087	-429.71838	-871.01703	1554.98645	-504.33093	-649.28918	1498.01782	-526.84473	-928.99542	1435.73401	-346.00317	-603.96570	1423.18274	-391.07806	-775.72852	1309.71143	-428.94595	-736.09540	1427.19299	-256.55563	-1056.73645	1096.78931	-277.32147	-495.77084	1098.66101	-372.87323	-1088.71399	858.56061	-234.28989	-473.41205	862.92737	-462.41684	-833.65698	1020.06213	-442.56482	-702.54077	990.34515	-450.84567	-780.16699	941.21674	-182.92305	-1004.53015	507.08078	-527.31744	-590.98840	515.76746	-260.17078				-682.97827	80.81330	-264.76868	
1075	10.740	-747.29535	1410.95837	-607.93488	-764.91510	1668.63977	-437.54840	-869.99664	1554.51135	-513.89673	-647.95605	1497.58960	-534.33868	-929.65417	1435.10071	-356.58902	-604.48401	1421.58301	-397.22562	-774.82977	1308.80420	-437.15704	-737.54346	1424.56738	-265.89096	-1058.18225	1095.67456	-288.71198	-495.57050	1097.92322	-380.76062	-1091.07349	857.74310	-245.67300	-474.66388	862.32709	-472.34299	-833.30109	1019.45227	-451.54297	-702.08527	989.12921	-457.73441	-783.91150	939.56616	-191.42760	-1001.17688	508.39145	-541.89996	-592.35693	515.84271	-256.21460				-680.00989	81.78809	-260.83188	
1076	10.750	-745.64294	1410.24866	-615.77582	-764.57166	1667.84741	-445.61185	-869.10419	1554.04297	-522.97186	-647.27734	1497.08813	-538.35907	-929.21619	1433.84314	-366.32465	-604.49048	1420.60706	-404.53189	-774.72028	1307.79187	-446.11780	-737.84882	1424.51599	-272.87265	-1059.40247	1094.79504	-301.04742	-495.47195	1097.06287	-387.21603	-1093.26526	856.79126	-257.70990	-475.60355	862.26489	-482.21173	-833.19379	1018.23730	-459.48914	-701.93048	987.70630	-465.55579	-786.90125	939.53839	-198.80315	-997.97253	508.43005	-553.69965	-593.90387	516.68884	-253.05710				-676.41595	81.31875	-262.12943	
1077	10.760	-743.94086	1409.46008	-624.53711	-764.25775	1666.86426	-454.00156	-868.21027	1553.30481	-532.36664	-645.74463	1496.11328	-546.41632	-930.43054	1432.74121	-376.76746	-604.50085	1419.61877	-411.83704	-774.48114	1306.37622	-454.01782	-740.05908	1423.48267	-281.24109	-1060.60364	1093.61157	-313.10913	-494.58356	1095.80554	-394.91983	-1095.82263	855.84875	-269.59802	-476.84747	861.50977	-492.61197	-832.70349	1017.58832	-468.81503	-719.71460	979.79706	-464.56723	-789.66113	937.82092	-208.94580	-994.93073	507.80374	-565.08057	-596.30115	517.55957	-250.73106				-672.97565	81.26193	-258.84302	
